<?xml version="1.0" encoding="UTF-8" standalone="no"?>
<!-- Created with Inkscape (http://www.inkscape.org/) -->

<svg
   xmlns:dc="http://purl.org/dc/elements/1.1/"
   xmlns:cc="http://creativecommons.org/ns#"
   xmlns:rdf="http://www.w3.org/1999/02/22-rdf-syntax-ns#"
   xmlns:svg="http://www.w3.org/2000/svg"
   xmlns="http://www.w3.org/2000/svg"
   xmlns:sodipodi="http://sodipodi.sourceforge.net/DTD/sodipodi-0.dtd"
   xmlns:inkscape="http://www.inkscape.org/namespaces/inkscape"
   width="64px"
   height="64px"
   id="svg6834"
   version="1.1"
   inkscape:version="0.48.4 r9939"
   sodipodi:docname="registration.svg">
  <defs
     id="defs6836" />
  <sodipodi:namedview
     id="base"
     pagecolor="#ffffff"
     bordercolor="#666666"
     borderopacity="1.0"
     inkscape:pageopacity="0.0"
     inkscape:pageshadow="2"
     inkscape:zoom="5.5"
     inkscape:cx="16.905037"
     inkscape:cy="32.024387"
     inkscape:current-layer="layer1"
     showgrid="true"
     inkscape:document-units="px"
     inkscape:grid-bbox="true"
     inkscape:window-width="1366"
     inkscape:window-height="744"
     inkscape:window-x="0"
     inkscape:window-y="24"
     inkscape:window-maximized="1" />
  <metadata
     id="metadata6839">
    <rdf:RDF>
      <cc:Work
         rdf:about="">
        <dc:format>image/svg+xml</dc:format>
        <dc:type
           rdf:resource="http://purl.org/dc/dcmitype/StillImage" />
        <dc:title />
      </cc:Work>
    </rdf:RDF>
  </metadata>
  <g
     id="layer1"
     inkscape:label="Layer 1"
     inkscape:groupmode="layer">
    <g
       id="g3168">
      <path
         transform="matrix(1.0497182,0,0,1.0497181,-0.92297955,-7.221285)"
         d="m 60.90909,37.363636 a 29.545454,29.545454 0 1 1 -59.090908,0 29.545454,29.545454 0 1 1 59.090908,0 z"
         sodipodi:ry="29.545454"
         sodipodi:rx="29.545454"
         sodipodi:cy="37.363636"
         sodipodi:cx="31.363636"
         id="path6842"
         style="fill:none;stroke:#008080;stroke-width:1.87784088;stroke-miterlimit:4;stroke-dasharray:none"
         sodipodi:type="arc" />
      <g
         transform="matrix(0.58170664,0,0,0.58170664,15.644364,11.316229)"
         id="g7363" />
      <g
         transform="matrix(0.58170664,0,0,0.58170664,15.644364,11.316229)"
         id="g7365" />
      <g
         transform="matrix(0.58170664,0,0,0.58170664,15.644364,11.316229)"
         id="g7367" />
      <g
         transform="matrix(0.58170664,0,0,0.58170664,15.644364,11.316229)"
         id="g7369" />
      <g
         transform="matrix(0.58170664,0,0,0.58170664,15.644364,11.316229)"
         id="g7371" />
      <g
         transform="matrix(0.58170664,0,0,0.58170664,15.644364,11.316229)"
         id="g7373" />
      <g
         transform="matrix(0.58170664,0,0,0.58170664,15.644364,11.316229)"
         id="g7375" />
      <g
         transform="matrix(0.58170664,0,0,0.58170664,15.644364,11.316229)"
         id="g7377" />
      <g
         transform="matrix(0.58170664,0,0,0.58170664,15.644364,11.316229)"
         id="g7379" />
      <g
         transform="matrix(0.58170664,0,0,0.58170664,15.644364,11.316229)"
         id="g7381" />
      <g
         transform="matrix(0.58170664,0,0,0.58170664,15.644364,11.316229)"
         id="g7383" />
      <g
         transform="matrix(0.58170664,0,0,0.58170664,15.644364,11.316229)"
         id="g7385" />
      <g
         transform="matrix(0.58170664,0,0,0.58170664,15.644364,11.316229)"
         id="g7387" />
      <g
         transform="matrix(0.58170664,0,0,0.58170664,15.644364,11.316229)"
         id="g7389" />
      <g
         transform="matrix(0.58170664,0,0,0.58170664,15.644364,11.316229)"
         id="g7391" />
      <g
         transform="matrix(0.44462622,0,0,0.44462622,13.408325,10.818312)"
         id="g7550" />
      <g
         transform="matrix(0.44462622,0,0,0.44462622,13.408325,10.818312)"
         id="g7552" />
      <g
         transform="matrix(0.44462622,0,0,0.44462622,13.408325,10.818312)"
         id="g7554" />
      <g
         transform="matrix(0.44462622,0,0,0.44462622,13.408325,10.818312)"
         id="g7556" />
      <g
         transform="matrix(0.44462622,0,0,0.44462622,13.408325,10.818312)"
         id="g7558" />
      <g
         transform="matrix(0.44462622,0,0,0.44462622,13.408325,10.818312)"
         id="g7560" />
      <g
         transform="matrix(0.44462622,0,0,0.44462622,13.408325,10.818312)"
         id="g7562" />
      <g
         transform="matrix(0.44462622,0,0,0.44462622,13.408325,10.818312)"
         id="g7564" />
      <g
         transform="matrix(0.44462622,0,0,0.44462622,13.408325,10.818312)"
         id="g7566" />
      <g
         transform="matrix(0.44462622,0,0,0.44462622,13.408325,10.818312)"
         id="g7568" />
      <g
         transform="matrix(0.44462622,0,0,0.44462622,13.408325,10.818312)"
         id="g7570" />
      <g
         transform="matrix(0.44462622,0,0,0.44462622,13.408325,10.818312)"
         id="g7572" />
      <g
         transform="matrix(0.44462622,0,0,0.44462622,13.408325,10.818312)"
         id="g7574" />
      <g
         transform="matrix(0.44462622,0,0,0.44462622,13.408325,10.818312)"
         id="g7576" />
      <g
         transform="matrix(0.44462622,0,0,0.44462622,13.408325,10.818312)"
         id="g7578" />
      <g
         id="text7934"
         style="font-size:2px;font-style:normal;font-weight:normal;line-height:125%;letter-spacing:0px;word-spacing:0px;fill:#008080;fill-opacity:1;stroke:none;font-family:Sans">
        <path
           id="path3122"
           style="font-size:4px;font-weight:bold;fill:#008080;-inkscape-font-specification:Sans Bold"
           d="m 15.670898,50.300293 1.248047,0 c 0.371092,3e-6 0.655597,0.08268 0.853516,0.248047 0.199216,0.164065 0.298825,0.39844 0.298828,0.703125 -3e-6,0.305991 -0.09961,0.541668 -0.298828,0.707031 -0.197919,0.164064 -0.482424,0.246095 -0.853516,0.246094 l -0.496093,0 0,1.011719 -0.751954,0 0,-2.916016 m 0.751954,0.544922 0,0.814453 0.416015,0 c 0.145832,2e-6 0.258462,-0.03516 0.337891,-0.105469 0.07943,-0.07161 0.119138,-0.172524 0.11914,-0.302734 -2e-6,-0.130206 -0.03972,-0.230467 -0.11914,-0.300781 -0.07943,-0.07031 -0.192059,-0.105467 -0.337891,-0.105469 l -0.416015,0" />
        <path
           id="path3124"
           style="font-size:4px;font-weight:bold;fill:#008080;-inkscape-font-specification:Sans Bold"
           d="m 18.600586,50.300293 2.029297,0 0,0.568359 -1.277344,0 0,0.542969 1.201172,0 0,0.568359 -1.201172,0 0,0.667969 1.320313,0 0,0.56836 -2.072266,0 0,-2.916016" />
        <path
           id="path3126"
           style="font-size:4px;font-weight:bold;fill:#008080;-inkscape-font-specification:Sans Bold"
           d="m 21.334961,53.216309 0,-2.916016 2.072266,0 0,0.568359 -1.320313,0 0,2.347657 -0.751953,0" />
        <path
           id="path3128"
           style="font-size:4px;font-weight:bold;fill:#008080;-inkscape-font-specification:Sans Bold"
           d="m 26.495117,50.300293 0,2.916016 -0.71289,0 0,-2 -1.060547,2 -0.839844,0 0,-2.916016 0.712891,0 0,2 1.060546,-2 0.839844,0" />
        <path
           id="path3130"
           style="font-size:4px;font-weight:bold;fill:#008080;-inkscape-font-specification:Sans Bold"
           d="m 29.545898,53.056152 c -0.138023,0.07162 -0.281903,0.125651 -0.43164,0.16211 -0.149742,0.03646 -0.305992,0.05469 -0.46875,0.05469 -0.485679,0 -0.870444,-0.135416 -1.154297,-0.40625 -0.283855,-0.272135 -0.425782,-0.640624 -0.425781,-1.105469 -10e-7,-0.466143 0.141926,-0.834633 0.425781,-1.105468 0.283853,-0.272133 0.668618,-0.4082 1.154297,-0.408203 0.162758,3e-6 0.319008,0.01823 0.46875,0.05469 0.149737,0.03646 0.293617,0.0905 0.43164,0.162109 l 0,0.603516 c -0.139325,-0.09505 -0.276695,-0.164711 -0.412109,-0.208984 -0.135419,-0.04427 -0.277997,-0.0664 -0.427734,-0.06641 -0.268231,3e-6 -0.479168,0.08594 -0.632813,0.257813 -0.153647,0.171877 -0.23047,0.408856 -0.230469,0.710937 -1e-6,0.300783 0.07682,0.537111 0.230469,0.708985 0.153645,0.171875 0.364582,0.257813 0.632813,0.257812 0.149737,1e-6 0.292315,-0.02213 0.427734,-0.06641 0.135414,-0.04427 0.272784,-0.113932 0.412109,-0.208984 l 0,0.603515" />
        <path
           id="path3132"
           style="font-size:4px;font-weight:bold;fill:#008080;-inkscape-font-specification:Sans Bold"
           d="m 29.823242,50.300293 2.6875,0 0,0.568359 -0.966797,0 0,2.347657 -0.751953,0 0,-2.347657 -0.96875,0 0,-0.568359" />
        <path
           id="path3134"
           style="font-size:4px;font-weight:bold;fill:#008080;-inkscape-font-specification:Sans Bold"
           d="m 32.897461,50.300293 1.248047,0 c 0.371092,3e-6 0.655596,0.08268 0.853515,0.248047 0.199217,0.164065 0.298826,0.39844 0.298829,0.703125 -3e-6,0.305991 -0.09961,0.541668 -0.298829,0.707031 -0.197919,0.164064 -0.482423,0.246095 -0.853515,0.246094 l -0.496094,0 0,1.011719 -0.751953,0 0,-2.916016 m 0.751953,0.544922 0,0.814453 0.416016,0 c 0.145831,2e-6 0.258461,-0.03516 0.33789,-0.105469 0.07943,-0.07161 0.119139,-0.172524 0.119141,-0.302734 -2e-6,-0.130206 -0.03972,-0.230467 -0.119141,-0.300781 -0.07943,-0.07031 -0.192059,-0.105467 -0.33789,-0.105469 l -0.416016,0" />
        <path
           id="path3136"
           style="font-size:4px;font-weight:bold;fill:#008080;-inkscape-font-specification:Sans Bold"
           d="m 37.59668,52.685059 -1.175782,0 -0.185546,0.53125 -0.75586,0 1.080078,-2.916016 0.896485,0 1.080078,2.916016 -0.75586,0 -0.183593,-0.53125 m -0.988282,-0.541016 0.798829,0 -0.398438,-1.160156 -0.400391,1.160156" />
        <path
           id="path3138"
           style="font-size:4px;font-weight:bold;fill:#008080;-inkscape-font-specification:Sans Bold"
           d="m 41.456055,53.216309 -2.535157,0 0,-2.916016 0.751954,0 0,2.347656 1.109375,0 0,-2.347656 0.751953,0 0,2.347656 0.490234,0 0,1.195313 -0.568359,0 0,-0.626953" />
        <path
           id="path3140"
           style="font-size:4px;font-weight:bold;fill:#008080;-inkscape-font-specification:Sans Bold"
           d="m 45.245117,50.300293 0,2.916016 -0.71289,0 0,-2 -1.060547,2 -0.839844,0 0,-2.916016 0.712891,0 0,2 1.060546,-2 0.839844,0" />
        <path
           id="path3142"
           style="font-size:4px;font-weight:bold;fill:#008080;-inkscape-font-specification:Sans Bold"
           d="m 46.760742,51.216309 c -10e-7,0.134116 0.03385,0.23047 0.101563,0.289062 0.06901,0.0586 0.18229,0.08789 0.339843,0.08789 l 0.375,0 0,-0.748047 -0.375,0 c -0.157553,2e-6 -0.270834,0.02865 -0.339843,0.08594 -0.06771,0.05729 -0.101564,0.152346 -0.101563,0.285157 m -0.888672,2 0.726563,-1.238282 c -0.09896,-0.05599 -0.222006,-0.153644 -0.369141,-0.292968 -0.147136,-0.140624 -0.220703,-0.307941 -0.220703,-0.501954 0,-0.291664 0.08919,-0.511716 0.267578,-0.660156 0.179687,-0.148434 0.461588,-0.222653 0.845703,-0.222656 l 1.207032,0 0,2.916016 -0.751954,0 0,-1.103516 -0.255859,0 -0.648437,1.103516 -0.800782,0" />
      </g>
      <g
         style="fill:#84be6a;fill-opacity:1"
         transform="matrix(0.546875,0,0,0.546875,14.5,9.001663)"
         id="Base">
        <g
           style="fill:#84be6a;fill-opacity:1"
           id="g7531">
          <path
             id="path7533"
             d="M 60,0 H 4 C 1.791,0 0,1.79 0,3.999 V 60 c 0,2.209 1.791,4 4,4 h 56 c 2.209,0 4,-1.791 4,-4 V 3.999 C 64,1.79 62.209,0 60,0 z"
             style="fill:#84be6a;fill-opacity:1"
             inkscape:connector-curvature="0" />
        </g>
      </g>
      <rect
         style="fill:#ffffff;fill-opacity:1;stroke:none"
         id="rect8042"
         width="27.730137"
         height="6.7089028"
         x="18.470377"
         y="28.79277"
         ry="1.844949" />
      <rect
         ry="1.844949"
         y="16.045851"
         x="18.470377"
         height="6.7089028"
         width="27.730137"
         id="rect8040"
         style="fill:#ffffff;fill-opacity:1;stroke:none" />
      <g
         id="text8044"
         style="font-size:2.45993137px;font-style:normal;font-weight:normal;line-height:125%;letter-spacing:0px;word-spacing:0px;fill:#84be6a;fill-opacity:1;stroke:none;font-family:Sans">
        <path
           id="path3158"
           style="font-weight:bold;fill:#84be6a;-inkscape-font-specification:Sans Bold"
           d="m 27.595754,20.295752 0,-0.349532 c 0.203393,-0.02242 0.325508,-0.09969 0.366347,-0.231819 0.04084,-0.132926 0.06126,-0.424001 0.06126,-0.873228 l 0,-0.338721 1.276811,0 0,1.7933 -0.462439,0 0,-1.443769 -0.351933,0 0,0.109304 c -10e-7,0.438817 -0.03884,0.759921 -0.116511,0.963313 -0.07767,0.202592 -0.335518,0.326309 -0.773533,0.371152" />
        <path
           id="path3160"
           style="font-weight:bold;fill:#84be6a;-inkscape-font-specification:Sans Bold"
           d="m 30.569773,18.805139 c -0.140935,1e-6 -0.250238,0.05205 -0.327911,0.156148 -0.07767,0.1041 -0.116511,0.250638 -0.11651,0.439616 -1e-6,0.18818 0.03884,0.334318 0.11651,0.438416 0.07767,0.104099 0.186976,0.156148 0.327911,0.156148 0.141733,0 0.251437,-0.05205 0.329112,-0.156148 0.07767,-0.104098 0.116509,-0.250236 0.11651,-0.438416 -1e-6,-0.188978 -0.03884,-0.335516 -0.11651,-0.439616 -0.07767,-0.104097 -0.187379,-0.156147 -0.329112,-0.156148 m 0,-0.335118 c 0.288272,2e-6 0.514085,0.08248 0.677442,0.247435 0.163353,0.164958 0.24503,0.392773 0.245032,0.683447 -2e-6,0.289876 -0.08168,0.517291 -0.245032,0.682247 -0.163357,0.164956 -0.38917,0.247435 -0.677442,0.247435 -0.287473,0 -0.513287,-0.08248 -0.677442,-0.247435 -0.163355,-0.164956 -0.245033,-0.392371 -0.245032,-0.682247 -1e-6,-0.290674 0.08168,-0.518489 0.245032,-0.683447 0.164155,-0.164955 0.389969,-0.247433 0.677442,-0.247435" />
        <path
           id="path3162"
           style="font-weight:bold;fill:#84be6a;-inkscape-font-specification:Sans Bold"
           d="m 31.840577,20.295752 0,-1.7933 1.274408,0 0,0.349531 -0.811969,0 0,1.443769 -0.462439,0" />
        <path
           id="path3164"
           style="font-weight:bold;fill:#84be6a;-inkscape-font-specification:Sans Bold"
           d="m 35.013985,18.502452 0,1.7933 -0.438416,0 0,-1.229966 -0.652218,1.229966 -0.51649,0 0,-1.7933 0.438416,0 0,1.229966 0.652218,-1.229966 0.51649,0" />
        <path
           id="path3166"
           style="font-weight:bold;fill:#84be6a;-inkscape-font-specification:Sans Bold"
           d="m 35.468015,18.502452 0.462438,0 0,0.683448 0.682247,0 0,-0.683448 0.462438,0 0,1.7933 -0.462438,0 0,-0.760321 -0.682247,0 0,0.760321 -0.462438,0 0,-1.7933" />
      </g>
      <g
         id="text8048"
         style="font-size:2.45993137px;font-style:normal;font-weight:bold;line-height:125%;letter-spacing:0px;word-spacing:0px;fill:#84be6a;fill-opacity:1;stroke:none;font-family:Sans;-inkscape-font-specification:Sans Bold">
        <path
           id="path3145"
           style=""
           d="m 28.255779,31.249368 0,1.793299 -0.462438,0 0,-1.443768 -0.682247,0 0,1.443768 -0.462438,0 0,-1.793299 1.607123,0" />
        <path
           id="path3147"
           style=""
           d="m 29.798041,32.715958 -0.723085,0 -0.114109,0.326709 -0.46484,0 0.664229,-1.793299 0.551323,0 0.664229,1.793299 -0.46484,0 -0.112907,-0.326709 m -0.607776,-0.332716 0.491265,0 -0.245032,-0.713476 -0.246233,0.713476" />
        <path
           id="path3149"
           style=""
           d="m 30.612413,31.249368 0.767527,0 c 0.228215,2e-6 0.403181,0.05085 0.524897,0.152544 0.122515,0.100898 0.183773,0.245034 0.183775,0.43241 -2e-6,0.18818 -0.06126,0.333117 -0.183775,0.434812 -0.121716,0.100897 -0.296682,0.151344 -0.524897,0.151344 l -0.305089,0 0,0.622189 -0.462438,0 0,-1.793299 m 0.462438,0.335117 0,0.500875 0.255842,0 c 0.08968,10e-7 0.15895,-0.02162 0.207797,-0.06486 0.04885,-0.04404 0.07327,-0.1061 0.07327,-0.186177 -2e-6,-0.08007 -0.02443,-0.141733 -0.07327,-0.184975 -0.04885,-0.04324 -0.118113,-0.06486 -0.207797,-0.06486 l -0.255842,0" />
        <path
           id="path3151"
           style=""
           d="m 33.233296,31.552055 c -0.140934,1e-6 -0.250238,0.05205 -0.327911,0.156148 -0.07767,0.1041 -0.116511,0.250638 -0.11651,0.439616 -10e-7,0.188179 0.03884,0.334318 0.11651,0.438416 0.07767,0.104099 0.186977,0.156148 0.327911,0.156148 0.141733,0 0.251437,-0.05205 0.329112,-0.156148 0.07767,-0.104098 0.116509,-0.250237 0.116511,-0.438416 -2e-6,-0.188978 -0.03884,-0.335516 -0.116511,-0.439616 -0.07767,-0.104098 -0.187379,-0.156147 -0.329112,-0.156148 m 0,-0.335118 c 0.288272,2e-6 0.514086,0.08248 0.677442,0.247435 0.163353,0.164957 0.245031,0.392773 0.245032,0.683447 -10e-7,0.289876 -0.08168,0.517291 -0.245032,0.682247 -0.163356,0.164956 -0.38917,0.247434 -0.677442,0.247434 -0.287473,0 -0.513287,-0.08248 -0.677442,-0.247434 -0.163355,-0.164956 -0.245032,-0.392371 -0.245032,-0.682247 0,-0.290674 0.08168,-0.51849 0.245032,-0.683447 0.164155,-0.164955 0.389969,-0.247433 0.677442,-0.247435" />
        <path
           id="path3153"
           style=""
           d="m 34.391194,33.042667 0,-0.349531 c 0.203392,-0.02242 0.325508,-0.09969 0.366347,-0.23182 0.04084,-0.132925 0.06126,-0.424 0.06126,-0.873227 l 0,-0.338721 1.27681,0 0,1.793299 -0.462438,0 0,-1.443768 -0.351934,0 0,0.109304 c -10e-7,0.438816 -0.03884,0.75992 -0.11651,0.963313 -0.07767,0.202592 -0.335518,0.326309 -0.773533,0.371151" />
        <path
           id="path3155"
           style=""
           d="m 37.279931,32.727969 c 0.09689,0 0.166958,-0.01802 0.2102,-0.05405 0.04644,-0.03924 0.06966,-0.09609 0.06967,-0.170562 -2e-6,-0.07287 -0.02322,-0.128521 -0.06967,-0.166958 -0.04244,-0.03603 -0.112508,-0.05405 -0.2102,-0.05405 l -0.271457,0 0,0.445622 0.271457,0 m 0.742304,-0.239026 c -2e-6,0.190581 -0.05846,0.328311 -0.175366,0.413191 -0.128924,0.09369 -0.306692,0.140533 -0.533306,0.140533 l -0.767527,0 0,-1.793299 0.462438,0 0,0.683448 0.305089,0 c 0.226614,1e-6 0.404382,0.04685 0.533306,0.140533 0.116909,0.08488 0.175364,0.223412 0.175366,0.415594" />
      </g>
      <g
         transform="matrix(0.24999611,0,0,0.24999611,41.091076,31.090917)"
         id="Wood">
        <g
           id="g8065">
          <polygon
             id="polygon8067"
             points="32,52 12,32 0,64 "
             style="fill:#e6e6e6" />
        </g>
      </g>
      <g
         style="fill:#84be6a;fill-opacity:1"
         transform="matrix(0.24999611,0,0,0.24999611,41.091076,31.090917)"
         id="Lead">
        <g
           style="fill:#84be6a;fill-opacity:1"
           id="g8070">
          <path
             id="path8072"
             d="M 4.894,50.948 0,64 13.051,59.105 C 11.638,55.336 8.664,52.361 4.894,50.948 z"
             style="fill:#84be6a;fill-opacity:1"
             inkscape:connector-curvature="0" />
        </g>
      </g>
      <g
         transform="matrix(0.24999611,0,0,0.24999611,41.091076,31.090917)"
         id="Body_1_">
        <g
           id="g8075">
          <rect
             id="rect8077"
             height="28.284"
             width="45.255001"
             style="fill:#ffcc66"
             transform="matrix(0.7071,-0.7071,0.7071,0.7071,-7.2548,34.4853)"
             y="11.858"
             x="15.373" />
        </g>
      </g>
      <g
         style="fill:#84be6a;fill-opacity:1"
         transform="matrix(0.24999611,0,0,0.24999611,41.091076,31.090917)"
         id="Ferrule">
        <g
           style="fill:#84be6a;fill-opacity:1"
           id="g8080">
          <path
             id="path8082"
             d="M 57.557,25.899 38.1,6.443 c -0.781,-0.78 -2.047,-0.78 -2.828,0 l -0.829,0.829 c -0.781,0.78 -0.781,2.046 0,2.828 l 19.456,19.455 c 0.781,0.782 2.047,0.782 2.828,0 l 0.829,-0.828 c 0.781,-0.78 0.781,-2.046 0.001,-2.828 z"
             style="fill:#84be6a;fill-opacity:1"
             inkscape:connector-curvature="0" />
        </g>
      </g>
      <g
         transform="matrix(0.24999611,0,0,0.24999611,38.181985,29.272735)"
         id="g8084" />
      <g
         transform="matrix(0.24999611,0,0,0.24999611,38.181985,29.272735)"
         id="g8086" />
      <g
         transform="matrix(0.24999611,0,0,0.24999611,38.181985,29.272735)"
         id="g8088" />
      <g
         transform="matrix(0.24999611,0,0,0.24999611,38.181985,29.272735)"
         id="g8090" />
      <g
         transform="matrix(0.24999611,0,0,0.24999611,38.181985,29.272735)"
         id="g8092" />
      <g
         transform="matrix(0.24999611,0,0,0.24999611,38.181985,29.272735)"
         id="g8094" />
      <g
         transform="matrix(0.24999611,0,0,0.24999611,38.181985,29.272735)"
         id="g8096" />
      <g
         transform="matrix(0.24999611,0,0,0.24999611,38.181985,29.272735)"
         id="g8098" />
      <g
         transform="matrix(0.24999611,0,0,0.24999611,38.181985,29.272735)"
         id="g8100" />
      <g
         transform="matrix(0.24999611,0,0,0.24999611,38.181985,29.272735)"
         id="g8102" />
      <g
         transform="matrix(0.24999611,0,0,0.24999611,38.181985,29.272735)"
         id="g8104" />
      <g
         transform="matrix(0.24999611,0,0,0.24999611,38.181985,29.272735)"
         id="g8106" />
      <g
         transform="matrix(0.24999611,0,0,0.24999611,38.181985,29.272735)"
         id="g8108" />
      <g
         transform="matrix(0.24999611,0,0,0.24999611,38.181985,29.272735)"
         id="g8110" />
      <g
         transform="matrix(0.24999611,0,0,0.24999611,38.181985,29.272735)"
         id="g8112" />
    </g>
  </g>
</svg>
